<svg width="720" height="520" viewBox="0 0 720 520" fill="none" xmlns="http://www.w3.org/2000/svg">
  <rect width="720" height="520" rx="36" fill="#F7F0E5"/>
  <rect x="28" y="28" width="664" height="464" rx="28" fill="#FFFDF9"/>
  <rect x="56" y="56" width="214" height="116" rx="24" fill="#162127"/>
  <text x="86" y="94" fill="#E3B68A" font-family="Arial, sans-serif" font-size="17" font-weight="700">Customer Health</text>
  <text x="86" y="146" fill="white" font-family="Arial, sans-serif" font-size="34" font-weight="700">92%</text>
  <text x="86" y="178" fill="#C8D2D9" font-family="Arial, sans-serif" font-size="12">Healthy managed portfolio</text>
  <rect x="292" y="56" width="182" height="116" rx="24" fill="#EFD8BE"/>
  <text x="322" y="94" fill="#8A5122" font-family="Arial, sans-serif" font-size="17" font-weight="700">Renewal Focus</text>
  <text x="322" y="146" fill="#8A5122" font-family="Arial, sans-serif" font-size="34" font-weight="700">90%+</text>
  <text x="322" y="178" fill="#8A5122" font-family="Arial, sans-serif" font-size="12">Supported through QBRs</text>
  <rect x="496" y="56" width="168" height="116" rx="24" fill="#D8EDE7"/>
  <text x="524" y="94" fill="#335C57" font-family="Arial, sans-serif" font-size="17" font-weight="700">CSAT</text>
  <text x="524" y="146" fill="#335C57" font-family="Arial, sans-serif" font-size="34" font-weight="700">95%+</text>
  <text x="524" y="178" fill="#335C57" font-family="Arial, sans-serif" font-size="12">Portfolio satisfaction</text>
  <rect x="56" y="204" width="608" height="260" rx="28" fill="#FBF7F0" stroke="#E8DECF"/>
  <path d="M98 392C146 347 175 355 220 302C253 263 279 262 311 296C341 326 373 337 418 274C468 205 530 218 622 156" stroke="#C47D43" stroke-width="10" stroke-linecap="round"/>
  <circle cx="220" cy="302" r="12" fill="#C47D43"/>
  <circle cx="311" cy="296" r="12" fill="#162127"/>
  <circle cx="418" cy="274" r="12" fill="#335C57"/>
  <circle cx="622" cy="156" r="12" fill="#C47D43"/>
  <rect x="96" y="234" width="152" height="16" rx="8" fill="#EFD8BE"/>
  <rect x="96" y="260" width="94" height="12" rx="6" fill="#E9DED1"/>
  <rect x="500" y="352" width="124" height="70" rx="20" fill="#162127"/>
  <text x="525" y="383" fill="#E3B68A" font-family="Arial, sans-serif" font-size="14" font-weight="700">Expansion</text>
  <text x="525" y="408" fill="white" font-family="Arial, sans-serif" font-size="24" font-weight="700">10-15%</text>
</svg>
