<svg width="720" height="820" viewBox="0 0 720 820" fill="none" xmlns="http://www.w3.org/2000/svg">
  <rect width="720" height="820" rx="44" fill="#17242B"/>
  <circle cx="90" cy="110" r="72" fill="#C47D43" fill-opacity="0.12"/>
  <circle cx="620" cy="140" r="96" fill="#D8EDE7" fill-opacity="0.1"/>
  <rect x="54" y="54" width="612" height="712" rx="36" fill="#1F313C"/>

  <rect x="90" y="94" width="540" height="126" rx="30" fill="#FFF9F1"/>
  <text x="126" y="142" fill="#95591F" font-family="Arial, sans-serif" font-size="18" font-weight="700">CX Retention Tool</text>
  <text x="126" y="188" fill="#162127" font-family="Arial, sans-serif" font-size="36" font-weight="700">Churn risk surfaced early</text>

  <rect x="90" y="258" width="236" height="194" rx="28" fill="#CFE3DE"/>
  <text x="126" y="304" fill="#335C57" font-family="Arial, sans-serif" font-size="19" font-weight="700">Health Score</text>
  <text x="126" y="386" fill="#335C57" font-family="Arial, sans-serif" font-size="76" font-weight="700">74</text>
  <text x="126" y="426" fill="#335C57" font-family="Arial, sans-serif" font-size="18">Risk detected from</text>
  <text x="126" y="452" fill="#335C57" font-family="Arial, sans-serif" font-size="18">engagement drop</text>

  <rect x="394" y="258" width="236" height="194" rx="28" fill="#FFF9F1"/>
  <text x="430" y="304" fill="#95591F" font-family="Arial, sans-serif" font-size="19" font-weight="700">Action Trigger</text>
  <rect x="430" y="332" width="164" height="14" rx="7" fill="#E7D0B1"/>
  <text x="430" y="374" fill="#95591F" font-family="Arial, sans-serif" font-size="18" font-weight="700">Low engagement</text>
  <rect x="430" y="396" width="136" height="14" rx="7" fill="#DDD2C3"/>
  <text x="430" y="438" fill="#6C645A" font-family="Arial, sans-serif" font-size="18" font-weight="700">Renewal risk rising</text>

  <rect x="90" y="488" width="540" height="236" rx="30" fill="#FFFDF9"/>
  <text x="126" y="536" fill="#162127" font-family="Arial, sans-serif" font-size="19" font-weight="700">Retention Workflow</text>

  <rect x="126" y="592" width="126" height="74" rx="22" fill="#162127"/>
  <text x="164" y="637" fill="#E8C391" font-family="Arial, sans-serif" font-size="18" font-weight="700">Alert</text>
  <rect x="296" y="592" width="126" height="74" rx="22" fill="#C47D43"/>
  <text x="333" y="637" fill="#FFFFFF" font-family="Arial, sans-serif" font-size="18" font-weight="700">Review</text>
  <rect x="466" y="592" width="126" height="74" rx="22" fill="#3C6C66"/>
  <text x="497" y="637" fill="#FFFFFF" font-family="Arial, sans-serif" font-size="18" font-weight="700">Outreach</text>

  <path d="M252 629H296" stroke="#C47D43" stroke-width="10" stroke-linecap="round"/>
  <path d="M422 629H466" stroke="#C47D43" stroke-width="10" stroke-linecap="round"/>

  <text x="126" y="700" fill="#5F6B72" font-family="Arial, sans-serif" font-size="18">Designed to support consistent, proactive</text>
  <text x="126" y="726" fill="#5F6B72" font-family="Arial, sans-serif" font-size="18">customer retention action.</text>
</svg>
