<svg width="720" height="820" viewBox="0 0 720 820" fill="none" xmlns="http://www.w3.org/2000/svg">
  <rect width="720" height="820" rx="44" fill="#17242B"/>
  <circle cx="90" cy="110" r="74" fill="#C47D43" fill-opacity="0.12"/>
  <circle cx="620" cy="150" r="96" fill="#D8EDE7" fill-opacity="0.1"/>
  <rect x="54" y="54" width="612" height="712" rx="36" fill="#1F313C"/>

  <rect x="90" y="94" width="540" height="124" rx="30" fill="#FFF9F1"/>
  <text x="126" y="142" fill="#95591F" font-family="Arial, sans-serif" font-size="18" font-weight="700">CX Retention Tool</text>
  <text x="126" y="188" fill="#162127" font-family="Arial, sans-serif" font-size="34" font-weight="700">Early churn visibility for</text>
  <text x="126" y="226" fill="#162127" font-family="Arial, sans-serif" font-size="34" font-weight="700">proactive customer action</text>

  <rect x="90" y="258" width="250" height="198" rx="28" fill="#CFE3DE"/>
  <text x="126" y="304" fill="#335C57" font-family="Arial, sans-serif" font-size="19" font-weight="700">Health Score</text>
  <text x="126" y="388" fill="#335C57" font-family="Arial, sans-serif" font-size="76" font-weight="700">74</text>
  <text x="126" y="430" fill="#335C57" font-family="Arial, sans-serif" font-size="18">Detected drop in</text>
  <text x="126" y="456" fill="#335C57" font-family="Arial, sans-serif" font-size="18">customer engagement</text>

  <rect x="380" y="258" width="250" height="198" rx="28" fill="#FFF9F1"/>
  <text x="416" y="304" fill="#95591F" font-family="Arial, sans-serif" font-size="19" font-weight="700">Action Trigger</text>
  <circle cx="432" cy="350" r="8" fill="#C47D43"/>
  <text x="452" y="356" fill="#95591F" font-family="Arial, sans-serif" font-size="18" font-weight="700">Low engagement</text>
  <circle cx="432" cy="394" r="8" fill="#B8AEA0"/>
  <text x="452" y="400" fill="#6C645A" font-family="Arial, sans-serif" font-size="18" font-weight="700">Renewal at risk</text>
  <circle cx="432" cy="438" r="8" fill="#3C6C66"/>
  <text x="452" y="444" fill="#3C6C66" font-family="Arial, sans-serif" font-size="18" font-weight="700">Escalate outreach</text>

  <rect x="90" y="492" width="540" height="228" rx="30" fill="#FFFDF9"/>
  <text x="126" y="538" fill="#162127" font-family="Arial, sans-serif" font-size="19" font-weight="700">Retention Workflow</text>

  <rect x="126" y="592" width="116" height="70" rx="22" fill="#162127"/>
  <text x="161" y="635" fill="#E8C391" font-family="Arial, sans-serif" font-size="18" font-weight="700">Alert</text>
  <rect x="302" y="592" width="116" height="70" rx="22" fill="#C47D43"/>
  <text x="335" y="635" fill="#FFFFFF" font-family="Arial, sans-serif" font-size="18" font-weight="700">Review</text>
  <rect x="478" y="592" width="116" height="70" rx="22" fill="#3C6C66"/>
  <text x="500" y="635" fill="#FFFFFF" font-family="Arial, sans-serif" font-size="18" font-weight="700">Outreach</text>
  <path d="M242 627H302" stroke="#C47D43" stroke-width="10" stroke-linecap="round"/>
  <path d="M418 627H478" stroke="#C47D43" stroke-width="10" stroke-linecap="round"/>

  <text x="126" y="696" fill="#5F6B72" font-family="Arial, sans-serif" font-size="18">Built to help Customer Success teams act</text>
  <text x="126" y="722" fill="#5F6B72" font-family="Arial, sans-serif" font-size="18">earlier, more consistently, and with clearer priorities.</text>
</svg>
