<svg width="720" height="820" viewBox="0 0 720 820" fill="none" xmlns="http://www.w3.org/2000/svg">
  <rect width="720" height="820" rx="44" fill="#17242B"/>
  <circle cx="116" cy="120" r="76" fill="#C47D43" fill-opacity="0.18"/>
  <circle cx="610" cy="164" r="92" fill="#D8EDE7" fill-opacity="0.15"/>
  <rect x="56" y="58" width="608" height="704" rx="34" fill="#223039"/>
  <rect x="92" y="96" width="536" height="112" rx="28" fill="#FFF9F1"/>
  <text x="126" y="136" fill="#8A5122" font-family="Arial, sans-serif" font-size="18" font-weight="700">CX Retention Tool</text>
  <text x="126" y="178" fill="#162127" font-family="Arial, sans-serif" font-size="38" font-weight="700">Churn risk surfaced early</text>
  <rect x="92" y="242" width="256" height="188" rx="28" fill="#D8EDE7"/>
  <text x="124" y="284" fill="#335C57" font-family="Arial, sans-serif" font-size="18" font-weight="700">Health Score</text>
  <text x="124" y="354" fill="#335C57" font-family="Arial, sans-serif" font-size="72" font-weight="700">74</text>
  <text x="124" y="392" fill="#335C57" font-family="Arial, sans-serif" font-size="18">Risk detected from engagement drop</text>
  <rect x="372" y="242" width="256" height="188" rx="28" fill="#FFF9F1"/>
  <text x="404" y="284" fill="#8A5122" font-family="Arial, sans-serif" font-size="18" font-weight="700">Action Trigger</text>
  <rect x="404" y="318" width="188" height="18" rx="9" fill="#EFD8BE"/>
  <rect x="404" y="352" width="160" height="18" rx="9" fill="#E8DECF"/>
  <rect x="404" y="386" width="208" height="18" rx="9" fill="#D7E3DC"/>
  <rect x="92" y="464" width="536" height="236" rx="28" fill="#FFFDF9"/>
  <text x="124" y="506" fill="#162127" font-family="Arial, sans-serif" font-size="18" font-weight="700">Retention Workflow</text>
  <rect x="124" y="546" width="132" height="78" rx="20" fill="#162127"/>
  <text x="150" y="589" fill="#E3B68A" font-family="Arial, sans-serif" font-size="18" font-weight="700">Alert</text>
  <rect x="294" y="546" width="132" height="78" rx="20" fill="#C47D43"/>
  <text x="327" y="589" fill="white" font-family="Arial, sans-serif" font-size="18" font-weight="700">Review</text>
  <rect x="464" y="546" width="132" height="78" rx="20" fill="#335C57"/>
  <text x="490" y="589" fill="white" font-family="Arial, sans-serif" font-size="18" font-weight="700">Outreach</text>
  <path d="M256 585H294" stroke="#C47D43" stroke-width="10" stroke-linecap="round"/>
  <path d="M426 585H464" stroke="#C47D43" stroke-width="10" stroke-linecap="round"/>
  <text x="124" y="670" fill="#5F6B72" font-family="Arial, sans-serif" font-size="18">Designed to support consistent, proactive customer retention action.</text>
</svg>
